<svg id="visual" viewBox="0 0 960 540" width="960" height="540" xmlns="http://www.w3.org/2000/svg" xmlns:xlink="http://www.w3.org/1999/xlink" version="1.1"><rect x="0" y="0" width="960" height="540" fill="#001220"></rect><defs><linearGradient id="grad1_0" x1="43.8%" y1="100%" x2="100%" y2="0%"><stop offset="14.444444444444446%" stop-color="#001220" stop-opacity="1"></stop><stop offset="85.55555555555554%" stop-color="#001220" stop-opacity="1"></stop></linearGradient></defs><defs><linearGradient id="grad2_0" x1="0%" y1="100%" x2="56.3%" y2="0%"><stop offset="14.444444444444446%" stop-color="#001220" stop-opacity="1"></stop><stop offset="85.55555555555554%" stop-color="#001220" stop-opacity="1"></stop></linearGradient></defs><g transform="translate(960, 540)"><path d="M-432 0C-397.5 -39.6 -362.9 -79.1 -335.7 -109.1C-308.5 -139 -288.6 -159.4 -281.5 -204.5C-274.4 -249.7 -280.1 -319.8 -253.9 -349.5C-227.7 -379.2 -169.7 -368.6 -122.1 -375.7C-74.4 -382.7 -37.2 -407.3 0 -432L0 0Z" fill="#FBAE3C"></path></g><g transform="translate(0, 0)"><path d="M432 0C414.3 39.5 396.7 79 388 126.1C379.4 173.2 379.8 227.9 349.5 253.9C319.2 280 258.3 277.4 219.8 302.6C181.3 327.8 165.2 380.8 132.3 407.1C99.3 433.3 49.7 432.6 0 432L0 0Z" fill="#FBAE3C"></path></g></svg>