<svg width="429" height="81.72036974005499" viewBox="0 0 369.9130434782609 70.46487339093827" class="css-1j8o68f"><defs id="SvgjsDefs1405"></defs><g id="SvgjsG1406" featurekey="symbolFeature-0" transform="matrix(0.9799024098778553,0,0,0.9799024098778553,-10.951908567735044,-13.351117075119472)" fill="#111111"><path xmlns="http://www.w3.org/2000/svg" fill="#111111" d="M88.457,45.68c-0.175-0.816-0.524-2.227-1.106-3.764c-0.013-0.034-0.023-0.066-0.04-0.101  c-1.242-3.239-3.519-7-7.41-7c-0.298,0-0.604,0.023-0.907,0.07c-3.062,0.475-4.049,2.806-4.701,4.348  c-0.558,1.318-0.796,1.706-1.304,1.735c-1.989,0.085-6.376-1.563-8.028-3.335c-0.372-0.398-0.459-0.664-0.453-0.749  c0.001-0.014-0.001-0.03,0-0.044c0-0.009,0-0.016,0-0.024c0.116-2.032-0.813-5.234-2.6-7.147c-1.186-1.269-2.621-1.881-4.187-1.736  c-0.3,0.028-0.58,0.163-0.788,0.381c-0.051,0.052-2.421,2.509-5.886,5.448l-0.049-0.046c-0.499-0.477-1.291-0.46-1.767,0.04  c-0.422,0.441-0.434,1.099-0.092,1.577c-1.016,0.812-2.092,1.634-3.209,2.431l-0.422-0.397c-0.501-0.473-1.292-0.451-1.767,0.052  c-0.474,0.502-0.451,1.293,0.052,1.767l0.022,0.021c-1.107,0.72-2.238,1.392-3.373,1.991l-0.935-0.62  c-0.573-0.381-1.353-0.225-1.732,0.352c-0.312,0.472-0.246,1.067,0.1,1.48c-0.427,0.177-0.853,0.344-1.274,0.489  c-8.739,3.019-13.826,3.604-18.315,4.12l-1.377,0.16c-1.808,0.219-3.444,1.223-4.49,2.755c-0.931,1.365-1.345,3.023-1.221,4.787  c-0.003,0.117,0.008,0.23,0.038,0.346c0.049,0.445,0.121,0.895,0.238,1.348c1.208,4.68,9.767,11.604,17.61,14.249  c2.806,0.945,6.706,1.426,11.592,1.426c5.771,0,10.812-0.665,11.068-0.7c0.02-0.004,2.069-0.346,4.565-0.346  c1.595,0,3.018,0.137,4.226,0.407c1.532,0.344,4.49,0.395,6.116,0.395c2.027,0,19.847-0.116,21.239-4.16  c0.964-2.798,0.816-8.479,0.196-10.232c0.009-0.29,0.108-1.012,0.198-1.655C88.631,53.324,89.207,49.186,88.457,45.68z   M68.558,59.312l-3.756,0.637c-2.331,0.393-4.597,0.945-6.995,1.529c-3.228,0.787-6.699,1.633-10.71,2.142  c-0.307-4.976-3.951-9.718-7.492-13.194c0.767-0.314,1.735-0.716,2.851-1.188c0.052,0.059,0.089,0.126,0.153,0.176  c0.058,0.044,5.8,4.487,8.756,10.565c0.216,0.444,0.661,0.703,1.125,0.703c0.184,0,0.37-0.04,0.546-0.126  c0.621-0.302,0.879-1.05,0.577-1.671C51.076,53.67,46.824,49.696,45,48.142c0.919-0.4,1.889-0.832,2.886-1.283  c0.1,0.081,6.89,5.668,9.642,11.314c0.217,0.444,0.662,0.702,1.125,0.702c0.184,0,0.37-0.04,0.547-0.126  c0.62-0.303,0.878-1.052,0.576-1.672c-2.397-4.915-7.338-9.566-9.391-11.371c0.946-0.444,1.899-0.902,2.843-1.368  c1.542,1.259,7.711,6.55,10.222,12.53c0.2,0.479,0.664,0.767,1.153,0.767c0.161,0,0.325-0.031,0.482-0.098  c0.637-0.267,0.937-1,0.669-1.636c-2.418-5.763-7.68-10.72-10.098-12.794c2.515-1.311,4.835-2.646,6.586-3.891  c0.188,1.728,0.808,4.421,2.779,6.461c1.733,1.793,4.118,2.701,7.093,2.701c0.089,0,0.178-0.001,0.268-0.002  c6.769-0.122,11.086-2.414,13.191-3.905c0.169,0.581,0.317,1.163,0.438,1.731c0.658,3.074,0.12,6.939-0.201,9.249  c-0.068,0.49-0.123,0.888-0.161,1.228C80.553,57.275,74.72,58.264,68.558,59.312z M73.131,43.465  c2.138-0.122,2.873-1.86,3.464-3.258c0.68-1.605,1.177-2.603,2.781-2.851c0.179-0.027,0.354-0.041,0.524-0.041  c2.053,0,3.675,2.092,4.793,4.69c-1.408,1.13-5.405,3.746-12.356,3.871c-2.37,0.048-4.225-0.605-5.507-1.926  c-0.87-0.896-1.393-2.002-1.705-3.037C67.664,42.495,71.174,43.572,73.131,43.465z M37.418,45.262  c0.943-0.326,1.895-0.735,2.844-1.187l1.358,0.9c0.212,0.141,0.452,0.208,0.689,0.208c0.405,0,0.803-0.196,1.043-0.56  c0.381-0.575,0.224-1.351-0.352-1.732l-0.204-0.135c0.979-0.558,1.947-1.156,2.894-1.784l1.829,1.726  c0.241,0.228,0.55,0.341,0.857,0.341c0.332,0,0.663-0.132,0.909-0.393c0.474-0.502,0.451-1.293-0.052-1.767l-1.445-1.362  c1.101-0.796,2.152-1.605,3.146-2.405l2.296,2.193c0.242,0.231,0.553,0.347,0.863,0.347c0.329,0,0.658-0.13,0.903-0.387  c0.478-0.499,0.459-1.29-0.04-1.767l-2.085-1.992c2.682-2.291,4.692-4.271,5.495-5.084c0.602,0.059,1.177,0.379,1.712,0.952  c1.242,1.331,1.87,3.499,1.934,4.862C57.003,40.557,41.14,47.109,37.58,48.55c-1.101-0.964-2.113-1.766-2.925-2.378  C35.54,45.894,36.455,45.595,37.418,45.262z M14.484,51.343c0.648-0.95,1.616-1.548,2.725-1.682l1.363-0.159  c3.355-0.386,7.344-0.849,13.055-2.432c1.63,1.122,12.605,8.968,12.98,16.811c-2.514,0.212-5.232,0.281-8.229,0.117  c-15.284-0.832-21.544-8.11-22.692-9.635C13.641,53.231,13.907,52.188,14.484,51.343z M85.564,66.794  c-0.896,1.18-9.352,2.551-18.912,2.551c-2.592,0-4.622-0.122-5.57-0.334c-1.388-0.311-2.993-0.468-4.771-0.468  c-2.719,0-4.895,0.365-4.94,0.374c-0.051,0.007-5.096,0.672-10.693,0.672c-4.614,0-8.245-0.436-10.793-1.295  c-4.135-1.395-8.271-3.972-11.316-6.593c3.909,2.257,9.629,4.355,17.675,4.793c1.206,0.065,2.368,0.096,3.49,0.096  c7.665,0,13.469-1.415,18.666-2.682c2.354-0.574,4.576-1.116,6.819-1.494l3.759-0.637c6.118-1.041,11.909-2.022,16.935-2.61  C86.131,60.933,86.261,64.747,85.564,66.794z"></path></g><g id="SvgjsG1407" featurekey="nameFeature-0" transform="matrix(2.2423622968058283,0,0,2.2423622968058283,98.78094894677768,-21.984983682747615)" fill="#111111"><path d="M2.84 40.16 c-1.6 0 -2.12 -0.56 -2.16 -2.08 c-0.04 -1.4 0.6 -2.56 1.36 -3.64 c0.64 -0.92 0.64 -1.44 -0.6 -1.56 c-0.32 -0.04 -0.64 -0.24 -0.96 -0.32 c-0.24 -0.08 -0.52 -0.16 -0.76 -0.28 c-0.76 -0.32 -1.08 -0.96 -0.92 -1.76 c0.32 -1.68 1.2 -2.96 2.72 -3.68 c0.68 -0.36 1.48 -0.4 2.08 0.16 c0.48 0.48 0.76 1.08 0.44 1.8 c-0.32 0.8 -0.6 1.64 -1.28 2.2 c-0.8 0.64 -1.16 1.08 0.08 1.6 c0.76 0.32 0.72 1 0.28 1.68 c-0.56 0.84 -1.08 1.68 -1.48 2.6 c-0.32 0.72 -0.48 1.64 0.12 2.24 c0.6 0.64 1.48 0.4 2.24 0.08 c1.6 -0.64 2.88 -1.6 4.2 -2.76 c1.2 -1.04 2.76 -2.52 4.12 -3.76 c0.24 -0.16 0.44 -0.6 0.8 -0.24 c0.24 0.24 -0.04 0.48 -0.2 0.64 c-2.56 2.32 -4.8 4.84 -7.92 6.48 c-0.72 0.36 -1.44 0.68 -2.16 0.6 z M0.44 31.72 c1.2 0.12 3.32 -2.76 2.88 -3.8 c-0.28 -0.64 -0.76 -0.68 -1.32 -0.48 c-0.92 0.28 -2.4 2.24 -2.48 3.2 c-0.04 0.72 0.52 0.84 0.92 1.08 z M28.2 32.44 c0.4 0.32 -0.04 0.6 -0.24 0.76 c-2.16 2.12 -4.04 4.04 -6.6 5.64 c-0.48 0.28 -0.92 0.56 -1.4 0.76 c-0.92 0.36 -1.84 0.4 -2.64 -0.24 c-0.84 -0.68 -0.8 -1.64 -0.6 -2.56 c0.16 -0.68 0.4 -1.36 0.6 -2 c-1.76 0.84 -2.8 2.64 -4.44 3.68 c-0.56 0.36 -1.08 0.76 -1.68 1.04 c-0.72 0.32 -1.4 0.48 -2.04 -0.08 c-0.6 -0.56 -0.64 -1.32 -0.48 -2.04 c0.6 -2.84 4 -5.64 6.96 -5.72 c0.56 0 1.16 0.2 1.68 0.52 c0.24 0.16 0.44 0.56 0.8 0.36 c0.44 -0.24 0.8 -1 1.28 -0.2 c0.36 0.52 -0.16 0.96 -0.36 1.44 c-0.48 1 -1.12 1.96 -1.36 3.08 c-0.16 0.72 -0.4 1.4 0.32 1.96 c0.72 0.52 1.36 0.28 2.04 -0.08 c1.44 -0.68 2.72 -1.64 3.88 -2.76 c1.2 -1.16 2.28 -2 3.48 -3.16 c0.2 -0.24 0.48 -0.64 0.8 -0.4 z M16.48 34.24 c0.32 -0.32 0.68 -0.68 0.48 -1.2 c-0.28 -0.68 -0.92 -0.36 -1.32 -0.44 c-2.44 0 -5.04 2 -5.96 4.52 c-0.2 0.64 -0.56 1.28 0.12 1.8 c0.6 0.52 1.16 0.04 1.6 -0.24 c1.96 -1.16 3.48 -2.84 5.08 -4.44 z M30.76 40.16 c-1.6 0 -2.12 -0.56 -2.16 -2.08 c-0.04 -1.4 0.6 -2.56 1.36 -3.64 c0.64 -0.92 0.64 -1.44 -0.6 -1.56 c-0.32 -0.04 -0.64 -0.24 -0.96 -0.32 c-0.24 -0.08 -0.52 -0.16 -0.76 -0.28 c-0.76 -0.32 -1.08 -0.96 -0.92 -1.76 c0.32 -1.68 1.2 -2.96 2.72 -3.68 c0.68 -0.36 1.48 -0.4 2.08 0.16 c0.48 0.48 0.76 1.08 0.44 1.8 c-0.32 0.8 -0.6 1.64 -1.28 2.2 c-0.8 0.64 -1.16 1.08 0.08 1.6 c0.76 0.32 0.72 1 0.28 1.68 c-0.56 0.84 -1.08 1.68 -1.48 2.6 c-0.32 0.72 -0.48 1.64 0.12 2.24 c0.6 0.64 1.48 0.4 2.24 0.08 c1.6 -0.64 2.88 -1.6 4.2 -2.76 c1.2 -1.04 2.76 -2.52 4.12 -3.76 c0.24 -0.16 0.44 -0.6 0.8 -0.24 c0.24 0.24 -0.04 0.48 -0.2 0.64 c-2.56 2.32 -4.8 4.84 -7.92 6.48 c-0.72 0.36 -1.44 0.68 -2.16 0.6 z M28.360000000000003 31.72 c1.2 0.12 3.32 -2.76 2.88 -3.8 c-0.28 -0.64 -0.76 -0.68 -1.32 -0.48 c-0.92 0.28 -2.4 2.24 -2.48 3.2 c-0.04 0.72 0.52 0.84 0.92 1.08 z M41.32 39.8 c-2.64 0 -3.72 -1.52 -2.96 -4.04 c0.52 -1.56 1.4 -2.84 2.72 -3.8 c0.96 -0.68 2.04 -0.76 2.96 -0.04 c0.72 0.56 0.48 2.08 -0.44 3 c-1 1 -2.2 1.6 -3.68 1.52 c-0.96 -0.08 -1.32 0.6 -0.84 1.48 c0.52 0.96 1.96 1.48 3.36 1.08 c2.32 -0.68 4.32 -2 6.04 -3.68 c1.04 -1 1.88 -1.64 2.92 -2.68 c0.16 -0.16 0.4 -0.44 0.64 -0.12 c0.12 0.16 0.04 0.36 -0.08 0.52 c-2.72 2.8 -5.2 5.28 -9.08 6.56 c-0.52 0.16 -1.04 0.16 -1.56 0.2 z M40.120000000000005 35.68 c1.04 0.48 3.56 -1.24 3.6 -2.64 c-0.04 -0.6 -0.52 -0.92 -1.32 -0.8 c-0.8 0.08 -2.6 1.88 -2.72 2.68 c-0.08 0.4 0.12 0.64 0.44 0.76 z M58.480000000000004 40.36 c-2.04 0.2 -3.56 -0.68 -4.72 -2.36 c-0.48 -0.68 -0.56 -1.24 0.52 -1.6 c1.76 -0.52 3.16 -1.68 4.48 -2.88 c0.4 -0.36 0.68 -0.84 0.92 -1.32 c0.2 -0.36 0.48 -0.84 0 -1.24 c-0.4 -0.32 -0.76 -0.12 -1.12 0.04 c-1.12 0.48 -2.08 1.16 -3 1.96 c-2.12 1.92 -3.84 4.2 -5.64 6.44 c-0.28 0.36 -0.44 1.2 -1.12 0.8 c-0.56 -0.32 0.04 -0.84 0.16 -1.2 c3.16 -7.92 6.92 -15.52 11.12 -22.92 c1.08 -1.88 2.36 -3.72 4.24 -4.96 c0.4 -0.28 0.8 -0.48 1.2 -0.68 c1.32 -0.68 2.68 -1 3.92 0 c1.2 1 0.92 2.4 0.52 3.68 c-0.52 1.84 -1.56 3.36 -2.76 4.8 c-3.92 4.76 -8.56 8.72 -13.44 12.44 c-1.64 1.28 -1.88 3.12 -2.68 4.76 c-0.16 0.36 0.12 0.44 0.56 -0.08 c1.2 -1.4 2.48 -2.76 3.88 -4 c0.88 -0.84 1.92 -1.44 3.04 -1.88 c0.64 -0.24 1.28 -0.2 1.8 0.4 c0.56 0.64 0.4 1.16 0.08 1.84 c-0.96 2.04 -2.88 3.08 -4.68 4.16 c-1.48 0.92 -1.52 1.2 -0.12 2.24 c1.68 1.24 3.52 1.16 5.28 0.44 c2.92 -1.2 5.16 -3.24 7.2 -5.56 c0.4 -0.36 1.4 -1.64 1.72 -1.4 c0.36 0.24 -0.68 1.24 -1.2 1.84 c-2.08 2.48 -4.16 4.12 -6.88 5.48 c-1.04 0.52 -2.08 0.84 -3.28 0.76 z M54.120000000000005 30.04 c5.4 -3.72 10.12 -8.16 13.96 -13.48 c0.64 -0.92 1.12 -1.92 1.28 -3.08 c0.12 -0.88 0.32 -1.84 -0.4 -2.4 c-0.84 -0.68 -1.88 -0.48 -2.84 -0.04 c-1.72 0.76 -3.08 2.08 -4.12 3.64 c-3.16 4.8 -5.64 10 -8 15.24 c-0.08 0.12 -0.04 0.2 0.12 0.12 z M71.84 28.64 c-0.44 0.04 -0.72 -0.24 -0.8 -0.68 c-0.16 -1 0.76 -1.16 1.32 -1.44 c0.4 -0.2 0.68 0.2 0.8 0.64 c-0.24 0.64 -0.48 1.36 -1.32 1.48 z M69.96000000000001 39.68 c-1.48 0.44 -2.68 -0.56 -2.56 -2.16 c0.44 -1.68 1.24 -3.36 2.04 -5.04 c0.16 -0.32 0.44 -0.6 0.76 -0.36 c0.4 0.28 0.04 0.6 -0.08 0.88 c-0.52 1.2 -1.12 2.4 -1.56 3.64 c-0.24 0.72 -0.56 1.56 0.24 2.24 c0.52 0.4 1.4 0 2.04 -0.24 c2.52 -1.04 4.52 -3.96 7.44 -6.12 c0.2 -0.12 0.36 -0.44 0.6 -0.12 c0.2 0.24 -0.04 0.44 -0.24 0.56 c-3.88 2.8 -4.6 5.56 -8.68 6.72 z M79.68 40.12 c-2.36 0.64 -3.96 -0.6 -3.96 -3 c0 -2.92 3.16 -5.88 5.84 -5.56 c0.92 0.12 1.36 0.52 1.28 1.44 c-0.08 1.04 -0.76 1.48 -1.68 1.6 c-0.12 0.04 -0.24 -0.08 -0.36 -0.12 c0.04 -0.12 0.08 -0.24 0.16 -0.32 c0.24 -0.2 0.56 -0.32 0.84 -0.52 c0.36 -0.24 0.4 -0.64 0.24 -1.04 c-0.16 -0.36 -0.52 -0.32 -0.84 -0.36 c-2.08 -0.04 -4.96 3.08 -4.76 5.16 c0.12 1.6 1.44 2.48 3.16 2 c2.84 -0.76 5.04 -2.6 7.24 -4.36 c1.2 -0.96 2.04 -1.64 3.36 -2.48 c0.28 -0.16 0.56 -0.4 0.84 -0.08 c0.04 0.04 -0.24 0.44 -0.44 0.56 c-2.36 1.84 -4.4 3.36 -6.8 5.16 c-1.24 0.92 -2.64 1.52 -4.12 1.92 z M97.24000000000002 40.36 c-2.04 0.2 -3.56 -0.68 -4.72 -2.36 c-0.48 -0.68 -0.56 -1.24 0.52 -1.6 c1.76 -0.52 3.16 -1.68 4.48 -2.88 c0.4 -0.36 0.68 -0.84 0.92 -1.32 c0.2 -0.36 0.48 -0.84 0 -1.24 c-0.4 -0.32 -0.76 -0.12 -1.12 0.04 c-1.12 0.48 -2.08 1.16 -3 1.96 c-2.12 1.92 -3.84 4.2 -5.64 6.44 c-0.28 0.36 -0.44 1.2 -1.12 0.8 c-0.56 -0.32 0.04 -0.84 0.16 -1.2 c3.16 -7.92 6.92 -15.52 11.12 -22.92 c1.08 -1.88 2.36 -3.72 4.24 -4.96 c0.4 -0.28 0.8 -0.48 1.2 -0.68 c1.32 -0.68 2.68 -1 3.92 0 c1.2 1 0.92 2.4 0.52 3.68 c-0.52 1.84 -1.56 3.36 -2.76 4.8 c-3.92 4.76 -8.56 8.72 -13.44 12.44 c-1.64 1.28 -1.88 3.12 -2.68 4.76 c-0.16 0.36 0.12 0.44 0.56 -0.08 c1.2 -1.4 2.48 -2.76 3.88 -4 c0.88 -0.84 1.92 -1.44 3.04 -1.88 c0.64 -0.24 1.28 -0.2 1.8 0.4 c0.56 0.64 0.4 1.16 0.08 1.84 c-0.96 2.04 -2.88 3.08 -4.68 4.16 c-1.48 0.92 -1.52 1.2 -0.12 2.24 c1.68 1.24 3.52 1.16 5.28 0.44 c2.92 -1.2 5.16 -3.24 7.2 -5.56 c0.4 -0.36 1.4 -1.64 1.72 -1.4 c0.36 0.24 -0.68 1.24 -1.2 1.84 c-2.08 2.48 -4.16 4.12 -6.88 5.48 c-1.04 0.52 -2.08 0.84 -3.28 0.76 z M92.88000000000002 30.04 c5.4 -3.72 10.12 -8.16 13.96 -13.48 c0.64 -0.92 1.12 -1.92 1.28 -3.08 c0.12 -0.88 0.32 -1.84 -0.4 -2.4 c-0.84 -0.68 -1.88 -0.48 -2.84 -0.04 c-1.72 0.76 -3.08 2.08 -4.12 3.64 c-3.16 4.8 -5.64 10 -8 15.24 c-0.08 0.12 -0.04 0.2 0.12 0.12 z M107.24000000000002 40.88 c-0.6 -0.72 -0.04 -1.52 1.04 -2.04 c1.04 -0.52 1.24 -1.32 0.92 -2.04 c-1.04 -2.36 -1.36 -3 -1.12 -3.96 c0.24 -0.84 0.92 -1.4 1.72 -1.44 c0.76 -0.04 1.28 0.32 1.6 0.96 c0.28 0.56 0.2 1.48 -0.52 1.96 c-0.16 0.08 -0.44 0.24 -0.6 0.08 c-0.24 -0.16 -0.12 -0.32 0.08 -0.52 c1.04 -0.8 -0.08 -2.2 -0.96 -1.52 c-0.96 0.72 -0.56 1.88 0.76 4.72 c0.12 0.24 0.4 0.6 0.88 0.36 c0.92 -0.4 2.08 -0.92 3.2 -1.44 c2.04 -0.96 3.88 -2.12 5.76 -3.36 c0.24 -0.16 0.56 -0.6 0.84 -0.16 c0.24 0.36 -0.16 0.52 -0.44 0.72 c-2.64 1.88 -5.4 3.44 -8.44 4.6 c-0.96 0.36 -1.68 1 -1.92 1.92 c-0.28 1 -2.04 2.08 -2.8 1.16 z M108.52000000000002 40.44 c0.92 -0.36 1.28 -1.68 0.48 -1.28 c-1.72 0.84 -1.24 1.6 -0.48 1.28 z"></path></g></svg>